<svg width="214" height="214" viewBox="0 0 214 214" fill="none" xmlns="http://www.w3.org/2000/svg">
<circle cx="107" cy="107" r="107" fill="white"/>
<path d="M55.166 75.393C56.618 77.901 58.235 80.97 60.017 84.6C61.799 88.23 63.614 92.058 65.462 96.084C67.31 100.044 69.125 104.103 70.907 108.261C72.755 112.353 74.438 116.148 75.956 119.646C77.474 116.148 79.124 112.353 80.906 108.261C82.688 104.103 84.503 100.044 86.351 96.084C88.199 92.058 90.014 88.23 91.796 84.6C93.578 80.97 95.195 77.901 96.647 75.393H107.933C108.527 80.409 109.088 85.755 109.616 91.431C110.144 97.041 110.606 102.816 111.002 108.756C111.464 114.63 111.86 120.57 112.19 126.576C112.586 132.516 112.916 138.324 113.18 144H100.904C100.64 136.014 100.31 127.797 99.914 119.349C99.584 110.901 99.056 102.717 98.33 94.797C97.604 96.315 96.746 98.13 95.756 100.242C94.766 102.354 93.71 104.664 92.588 107.172C91.466 109.614 90.311 112.155 89.123 114.795C88.001 117.435 86.879 120.009 85.757 122.517C84.701 124.959 83.711 127.269 82.787 129.447C81.863 131.559 81.071 133.374 80.411 134.892H71.105C70.445 133.374 69.653 131.526 68.729 129.348C67.805 127.17 66.782 124.86 65.66 122.418C64.604 119.91 63.482 117.336 62.294 114.696C61.172 112.056 60.05 109.515 58.928 107.073C57.806 104.631 56.75 102.354 55.76 100.242C54.77 98.064 53.912 96.249 53.186 94.797C52.46 102.717 51.899 110.901 51.503 119.349C51.173 127.797 50.876 136.014 50.612 144H38.336C38.6 138.324 38.897 132.45 39.227 126.378C39.623 120.306 40.019 114.3 40.415 108.36C40.877 102.354 41.372 96.546 41.9 90.936C42.428 85.326 42.989 80.145 43.583 75.393H55.166ZM150.006 105.786C152.976 100.836 155.88 95.82 158.718 90.738C161.556 85.656 164.13 80.541 166.44 75.393H180.3C176.604 82.389 172.743 89.352 168.717 96.282C164.757 103.146 160.5 110.076 155.946 117.072V144H143.472V117.27C138.918 110.208 134.628 103.212 130.602 96.282C126.576 89.352 122.715 82.389 119.019 75.393H133.671C135.981 80.541 138.522 85.656 141.294 90.738C144.066 95.82 146.97 100.836 150.006 105.786Z" fill="#FC3D21"/>
</svg>
