<svg width="320" height="320" viewBox="0 0 320 320" fill="none" xmlns="http://www.w3.org/2000/svg">
<path d="M110 240H210V260H110V240Z" fill="#F24E1E"/>
<path d="M130 280H190V300H130V280Z" fill="#F24E1E"/>
<path d="M108.15 181.4C98.7848 174.257 91.319 164.921 86.4102 154.214C81.5015 143.507 79.3002 131.758 80.0002 120C80.0267 98.7908 88.4637 78.4579 103.461 63.4607C118.458 48.4635 138.791 40.0265 160 40V20C133.487 20.0291 108.069 30.5742 89.3217 49.3215C70.5744 68.0688 60.0293 93.4873 60.0002 120C59.3222 134.528 62.1057 149.009 68.1212 162.25C74.1368 175.491 83.2124 187.114 94.6002 196.16C104.72 205.51 110 210.81 110 220H130C130 201.6 118.9 191.34 108.15 181.4Z" fill="#F24E1E"/>
<path d="M238 140C234.313 156.426 225.047 171.067 211.78 181.43C201.07 191.35 190 201.6 190 220H210C210 210.8 215.26 205.5 225.35 196.14C242.886 182.119 254.65 162.137 258.4 140H238Z" fill="#F24E1E"/>
<path d="M300 34.1L285.9 20L250 55.9L214.1 20L200 34.1L235.9 70L200 105.9L214.1 120L250 84.1L285.9 120L300 105.9L264.1 70L300 34.1Z" fill="#F24E1E"/>
</svg>
